<?xml version="1.0" encoding="utf-8"?>
<!-- Generator: Adobe Illustrator 21.0.0, SVG Export Plug-In . SVG Version: 6.00 Build 0)  -->
<svg version="1.1" id="Layer_1" xmlns="http://www.w3.org/2000/svg" xmlns:xlink="http://www.w3.org/1999/xlink" x="0px" y="0px"
	 width="150px" height="150px" viewBox="0 0 150 150" style="enable-background:new 0 0 150 150;" xml:space="preserve">
<style type="text/css">
	.st0{fill:#231F20;}
</style>
<g>
	<path class="st0" d="M96.8,50.9c0-0.8,0.5-0.7,0.6-0.7c-4.5-2.2-8,1.3-8.6,1.6c-1.9,0.6-0.3-1-1.9-1.9c-2.2,0.6-0.3,3.8,0.3,5.4
		c1.3,3.2,1.9,2.9,3.8,4.5l1.9-1c-2.2-3.2-1.3-0.3-1.3-2.9c-1,0-1.9-0.3-2.2-1c0.7-1.9,1-1.9,2.6-1.9c-0.3,3.5,5.1,6.4,5.7,0
		c2.6,1.3,0.3,1.3,1.3,3.5c1.6-0.3,1.6-1,1.6-2.9C99,51.6,99,52.2,96.8,50.9z"/>
	<path class="st0" d="M91.1,39.6c-0.6,1-1.6,2.2-1.6,3.2c1.9,1.3,1.6,1.3,6.1,1c2.2-0.3,3.8,1.3,5.4,0.3c-0.3-1.3-3.5-2.2-5.4-3.2
		C94.3,39.9,94.9,39.2,91.1,39.6z"/>
	<path class="st0" d="M75,0C33.6,0,0,33.6,0,75c0,41.4,33.6,75,75,75c41.4,0,75-33.6,75-75C150,33.6,116.4,0,75,0z M86,143.5
		c-1.2,0.6-2.8,1.2-4.7,1.6c-1.6,0.1-3.1,0.2-4.7,0.3c-0.5,0-1.1,0-1.6,0c-4.2,0-8.2-0.4-12.2-1.1c-0.6-0.3-1.2-0.5-1.8-0.9
		c-6.1-3.5-14.2-11.8-17.8-21c1.1-1.3,2-2.8,2.5-4.5c1.6-6.2-4.9-13.8-1-14.4c1.9-0.3,3.4,0.9,5,2.8c3.7,4.3,7.8,12.5,18.5,16
		c0.8,1.9,1.6,3.9,1.3,5.1c-0.6,3,4,3.3,6.7,2c2.5-1.2,7.8-4.2,11.7-8.2c2-0.6,4.1-1.2,6.3-1.6c0-0.3,0-0.6,0-1
		c0,4.3,1.5,7.2,3.8,9.9C96.9,129.1,90.4,141.4,86,143.5z M125,124.6c-1.2-0.7-2.4-1.3-3.6-1.7c1-1.4,2-2.9,3.4-2.9
		c0.2,0,0.4,0,0.6,0.1c-10.7-6.5-12.5-13.5-13-16.1c-2-9.9,1-17.9,1-21.1c-0.7-10.6-10.8-63.9-18.2-65.6c1.5,3.1,6,13.6,7,16.2
		c1.9,8,2.6,13.1,2.2,21.4c-0.3,14,3.8,27.5-1.6,40.9c-1,1.9-1.6,3.5-2.6,5.4c-1.8-2.4-2.7-4.1-3.2-4c-0.8,0.2-0.8,3.1-1.9,4
		c-2.6,3.2,1,0.3-1,2.9c-8.8,8.8-4.9,3.4-6.3,3.5c-3.6,0.2,0.7-9.4,0.6-9.6c-2.9,0-5.4-0.3-8.3-0.3c-0.6,2.5,2.9,1.8,1.8,4
		c-2.4,4.4-9.8,10-9.8,3c-5.7-4-7.4-6.1-6.7-8.5c0.5-1.5,1.8-3.1,3.8-5.5c1.9,0.3,2.9,2.2,3.5,2.6c3.5,0,8.6-1.9,15-1.9
		c1.6,0.3,3.2,1,3.5,1c0.6,0,1.6-0.6,2.6-0.3c3.2,0.6,3.2,3.8,3.8,4.5c1.2-3.7-0.7-9.3-3.1-12c-4.2-4.7-6-9.5-6.4-9
		c-1.3,0.3-3.2,2.6-4.5,3.5c1.3-1.3-6.4-4.1-8-4.8c-1.3-0.3-2.9,3.8-4.8,4.8c-1.9,1-4.2,1.9-5.4,4.5c-7.8,6.9-2.9,8.3-1.5,10.6
		c-0.5,1.2-1,2.1-1.6,1.8c-1.2-0.8-3.3,1.2-4.9,1.1c-1.6-0.1-3.1-1.3-3.6-4c0,0,0-0.1,0-0.1c-0.4-2.8-0.4-8.4-1.9-9.8
		c-1.5-1.4-3.6-4.9-2.6-8.7c1-3.8,2-3.7,2.9-5.5c0.9-1.8-1.1-2.6-0.3-3.9c0.2-0.3,0.4-0.5,0.7-0.6h0c0,0,0,0,0,0
		c2.7-1.4,0.2-3.6,0-4.4c-0.1-0.5,0.5-1.2,1.2-1.8c2.1,0.4,3.1,0,3.9-0.5c0,0,0,0,0,0c0.2-0.1,0.4-0.3,0.6-0.4
		c0.1-0.1,0.2-0.1,0.3-0.2c1-0.3,0.7,0.3,1.5-0.6c0,0,0,0,0.1,0C60.2,56,60,56,59.8,55.9c0,0,0,0,0,0c-0.1,0-0.1,0-0.2,0
		c-0.2,0-0.3,0-0.5-0.1c-0.1,0-0.1,0-0.2,0c-0.1,0-0.2,0-0.3-0.1c-0.2-0.1-0.4-0.2-0.7-0.3c0.1,0,0.2,0,0.2,0
		c-0.2-0.1-0.3-0.1-0.4-0.1c0,0,0,0,0,0c-0.1-0.1-0.2-0.1-0.3-0.2c0.6-1.3,1.3-1.6,2.9-2.2c-0.1,1.2,0.3,2.1,0.9,2.7c0,0,0,0,0,0
		c0.1,0.1,0.3,0.2,0.4,0.3c0,0,0,0,0,0c0.2,0.1,0.3,0.2,0.5,0.2c0,0,0,0,0,0c0.1,0,0.2,0.1,0.3,0.1c0.7,0.2,1.4,0.1,2.1-0.2
		c0,0,0,0,0,0c0.1,0,0.2-0.1,0.2-0.1c0,0,0,0,0,0c0.2-0.1,0.4-0.2,0.5-0.4c0.1-0.1,0.2-0.2,0.2-0.3h0c0.5-0.6,0.8-1.5,0.6-2.7
		c0,0,0,0,1.3,0c1.2,1.5,1.1,1.8,0.7,2.1c0,0,0,0,0,0c-0.1,0.1-0.3,0.2-0.4,0.3c-0.3,0.2-0.6,0.4-0.9,0.8c1.2,0.2,3.3,0.6,4.4,0.3
		c0.1,0,0.2-0.1,0.3-0.1c0.1,0,0.2-0.1,0.2-0.2c0.1-0.1,0.1-0.1,0.2-0.2c0,0,0,0,0-0.1c0-0.1,0.1-0.1,0.1-0.2c0,0,0,0,0-0.1
		c0,0,0-0.1,0-0.1c0.7,0.4,1.1,1,0.7,1.6c-1.1,1.8-3.9,3.6-3.4,3.8c0.4,0,0.9-0.1,1.4-0.2c2.8-0.6,5.9-3.9,5.8-5.6
		c-0.1-1.7-1.8-3.5-2.5-3.6c-0.6,0-1.4,2.9-2.1,3.1c-1.3,0-1.9-0.3-1.9-1.9c0-1.9,0-1.3-2.2-2.2c-1.5-0.7-2.7-1.1-4-1.2
		c0,0-0.1,0-0.1,0c-0.4,0-0.8,0-1.2,0.1c0,0,0,0-0.1,0c-2.4,0.3-7.4,1.4-10,5.6c-3.5,5.7-3.8,7.9-8,6.7c-5.8-1.7,1.2-6.3-4.2-17.6
		c-1.5-3.2,0.4-4.7,1.5-11.1c0.4-2.4,0.7-5.1,1.4-7.8c3.7-5.5,9.2-9.6,15.9-11.1c6-1.7,10.9-2.4,14.9-2.5
		c10.5-0.4,14.6,3.3,16.7,4.4c1.3-3.8-1-2.6-1.6-4.1c-1-5.9-7.7-6.2-11.5-6.4c-0.8-0.3-1.8-0.4-2.9-0.4c-5.4,0-12.5,3.1-14.8,3.7
		c-0.7,0.2-1,0.1-0.5-0.4c0.4-0.4,1.3-1.1,2.6-2.1c3.6-0.7,7.4-1.1,11.2-1.2c0.5,0,1,0,1.4,0c0.1,0,0.1,0,0.2,0
		c38.9,0,70.5,31.6,70.5,70.5C145.5,94.3,137.6,111.8,125,124.6z M73.5,84.1c4.1-0.6,8-2.2,9.9-2.9c1.9,0.3,3.5,1,4.5,1
		c0.3,0,0.5,1,0.7,2.3c-0.1,0.8-0.3,1.4-0.5,1.6c-0.3,0.3-1.5,0.6-1.5,0.6c1,0.6,1.6,1.6,2.6,2.2c0,2.9-16.6,1.6-16.6,0
		c1-0.6,3.5-1.3,4.5-1.9C74.8,87,73.5,86.4,73.5,84.1z"/>
	<path class="st0" d="M60.7,38.1c-2.2-0.2-3.5-0.1-5.1,1.7c-1.3,1.1-2.2,3.4-2.2,5c1.9-0.2,1.6-1.1,3.5-1.9c6.4-3,12.8,0.9,15-3.1
		C71.3,35.7,67.4,37.9,60.7,38.1z"/>
</g>
</svg>
